# Blender v2.79 (sub 0) OBJ File: ''
# www.blender.org
mtllib untitled5.mtl
o Cube
v 0.483433 -0.483433 -0.483433
v 0.483433 -0.483433 0.483433
v -0.483433 -0.483433 0.483433
v -0.483433 -0.483433 -0.483434
v 0.483434 0.483433 -0.483433
v 0.483433 0.483433 0.483434
v -0.483434 0.483433 0.483433
v -0.483433 0.483433 -0.483433
v 0.505762 -0.505762 -0.505762
v 0.505762 -0.505762 0.505762
v -0.505762 -0.505762 0.505762
v -0.505762 -0.505762 -0.505762
v 0.505762 0.505762 -0.505762
v 0.505762 0.505762 0.505763
v -0.505762 0.505762 0.505762
v -0.505762 0.505762 -0.505762
vn 0.0000 -1.0000 -0.0000
vn 0.0000 1.0000 0.0000
vn 1.0000 0.0000 0.0000
vn -0.0000 -0.0000 1.0000
vn -1.0000 -0.0000 -0.0000
vn 0.0000 0.0000 -1.0000
usemtl Material
s off
f 1//1 2//1 3//1 4//1
f 5//2 8//2 7//2 6//2
f 1//3 5//3 6//3 2//3
f 2//4 6//4 7//4 3//4
f 3//5 7//5 8//5 4//5
f 5//6 1//6 4//6 8//6
usemtl OUTLINE
f 9//2 12//2 11//2 10//2
f 13//1 14//1 15//1 16//1
f 9//5 10//5 14//5 13//5
f 10//6 11//6 15//6 14//6
f 11//3 12//3 16//3 15//3
f 13//4 16//4 12//4 9//4
